<?xml version="1.0" encoding="UTF-8"?>
<svg width="12px" height="12px" viewBox="0 0 14 14" version="1.1" xmlns="http://www.w3.org/2000/svg" xmlns:xlink="http://www.w3.org/1999/xlink">
    <title>编组 50</title>
    <g id="页面-1" stroke="none" stroke-width="1" fill="none" fill-rule="evenodd">
        <g id="新建商品库3" transform="translate(-503.000000, -867.000000)" fill="#999999" fill-rule="nonzero">
            <g id="编组-30" transform="translate(267.000000, 851.000000)">
                <g id="编组-50" transform="translate(236.000000, 16.000000)">
                    <path d="M8.08387724,7 L13.7841966,1.29730481 C14.0719345,1.00944707 14.0719345,0.534870797 13.7841966,0.247013059 L13.7530898,0.215893304 C13.465352,-0.0719644346 12.9909735,-0.0719644346 12.7032357,0.215893304 L7.00291626,5.92636844 L1.30259686,0.215893304 C1.01485905,-0.0719644346 0.540480489,-0.0719644346 0.252742675,0.215893304 L0.221635884,0.247013059 C-0.073878628,0.534870797 -0.073878628,1.00944707 0.221635884,1.29730481 L5.92195528,7 L0.221635884,12.7026952 C-0.0661019302,12.9905529 -0.0661019302,13.4651292 0.221635884,13.7529869 L0.252742675,13.7841067 C0.540480489,14.0719644 1.01485905,14.0719644 1.30259686,13.7841067 L7.00291626,8.0814115 L12.7032357,13.7841067 C12.9909735,14.0719644 13.465352,14.0719644 13.7530898,13.7841067 L13.7841966,13.7529869 C14.0719345,13.4651292 14.0719345,12.9905529 13.7841966,12.7026952 L8.08387724,7 Z" id="路径"></path>
                </g>
            </g>
        </g>
    </g>
</svg>