<?xml version="1.0" encoding="UTF-8"?>
<svg width="20px" height="20px" viewBox="0 0 20 20" version="1.1" xmlns="http://www.w3.org/2000/svg" xmlns:xlink="http://www.w3.org/1999/xlink">
    <title>icon/tab-delete</title>
    <g id="控件" stroke="none" stroke-width="1" fill="none" fill-rule="evenodd">
        <g id="icon/tab-delete" fill="#6a6a6a">
            <path d="M10,4 C10.4142136,4 10.75,4.33578644 10.75,4.75 L10.75,9.25 L15.25,9.25 C15.6642136,9.25 16,9.58578644 16,10 C16,10.4142136 15.6642136,10.75 15.25,10.75 L10.75,10.75 L10.75,15.25 C10.75,15.6642136 10.4142136,16 10,16 C9.58578644,16 9.25,15.6642136 9.25,15.25 L9.25,10.75 L4.75,10.75 C4.33578644,10.75 4,10.4142136 4,10 C4,9.58578644 4.33578644,9.25 4.75,9.25 L9.25,9.25 L9.25,4.75 C9.25,4.33578644 9.58578644,4 10,4 Z" id="形状结合" transform="translate(10.000000, 10.000000) rotate(-315.000000) translate(-10.000000, -10.000000) "></path>
        </g>
    </g>
</svg>